<?xml version="1.0" encoding="utf-8"?>
<!-- Generator: Adobe Illustrator 16.0.0, SVG Export Plug-In . SVG Version: 6.00 Build 0)  -->
<!DOCTYPE svg PUBLIC "-//W3C//DTD SVG 1.1//EN" "http://www.w3.org/Graphics/SVG/1.1/DTD/svg11.dtd">
<svg version="1.1" id="Layer_1" xmlns="http://www.w3.org/2000/svg" xmlns:xlink="http://www.w3.org/1999/xlink" x="0px" y="0px"
	 width="26px" height="9px" viewBox="0 0 26 9" enable-background="new 0 0 26 9" xml:space="preserve">
<path fill="#08104D" d="M25.962,4.691c0.05-0.122,0.05-0.26,0-0.382c-0.025-0.061-0.063-0.117-0.109-0.163l-3.534-3.535
	c-0.195-0.195-0.512-0.195-0.707,0s-0.195,0.512,0,0.707L24.293,4H0.501c-0.277,0-0.5,0.224-0.5,0.5S0.224,5,0.501,5h23.792
	l-2.682,2.682c-0.195,0.195-0.195,0.512,0,0.707c0.098,0.098,0.226,0.146,0.354,0.146s0.256-0.049,0.354-0.146l3.534-3.535
	C25.899,4.808,25.937,4.753,25.962,4.691"/>
</svg>
