<?xml version="1.0" encoding="utf-8"?>
<!-- Generator: Adobe Illustrator 21.0.2, SVG Export Plug-In . SVG Version: 6.00 Build 0)  -->
<svg version="1.1" id="Layer_1" xmlns="http://www.w3.org/2000/svg" xmlns:xlink="http://www.w3.org/1999/xlink" x="0px" y="0px"
	 viewBox="0 0 26 9" style="enable-background:new 0 0 26 9;" xml:space="preserve">
<style type="text/css">
	.st0{fill:#FF4B36;}
</style>
<path class="st0" d="M26,4.7C26,4.6,26,4.4,26,4.3c0-0.1-0.1-0.1-0.1-0.2l-3.5-3.5c-0.2-0.2-0.5-0.2-0.7,0s-0.2,0.5,0,0.7L24.3,4
	H0.5C0.2,4,0,4.2,0,4.5S0.2,5,0.5,5h23.8l-2.7,2.7c-0.2,0.2-0.2,0.5,0,0.7c0.1,0.1,0.2,0.1,0.4,0.1s0.3,0,0.4-0.1l3.5-3.5
	C25.9,4.8,25.9,4.8,26,4.7z"/>
</svg>
